<svg width="80" height="80" viewBox="0 0 80 80" fill="none" xmlns="http://www.w3.org/2000/svg">
<path d="M14.8 41C14.8 50.9252 22.8748 59 32.8 59H65.2V51.8H32.8C26.8438 51.8 22 46.9562 22 41V37.4H65.2L76 5H4V12.2H14.8V41Z" fill="#2F80ED"/>
<path d="M25.6774 74.4452C28.6704 74.4452 31.0968 72.0189 31.0968 69.0258C31.0968 66.0328 28.6704 63.6065 25.6774 63.6065C22.6844 63.6065 20.2581 66.0328 20.2581 69.0258C20.2581 72.0189 22.6844 74.4452 25.6774 74.4452Z" fill="#2F80ED"/>
<path d="M57.4194 74.4452C60.4124 74.4452 62.8387 72.0189 62.8387 69.0258C62.8387 66.0328 60.4124 63.6065 57.4194 63.6065C54.4263 63.6065 52 66.0328 52 69.0258C52 72.0189 54.4263 74.4452 57.4194 74.4452Z" fill="#2F80ED"/>
</svg>
